# Wavefront OBJ exported 

mtllib rus_build_9et_03_LOD2.mtl

v 65.000000 84.000000 16.000000
v -65.000000 84.000000 16.000000
v 65.000000 84.000000 -16.000000
v -65.000000 84.000000 -16.000000
v -65.000000 84.000000 16.000000
v -16.000000 84.000000 16.000000
v -65.000000 44.000000 16.000000
v -16.000000 44.000000 16.000000
v -65.000000 44.000000 16.000000
v -16.000000 44.000000 16.000000
v -65.000000 0.000000 16.000000
v -16.000000 0.000000 16.000000
v 65.000000 84.000000 16.000000
v 16.000000 84.000000 16.000000
v 65.000000 44.000000 16.000000
v 16.000000 44.000000 16.000000
v 65.000000 44.000000 16.000000
v 16.000000 44.000000 16.000000
v 65.000000 0.000000 16.000000
v 16.000000 0.000000 16.000000
v -16.000000 84.000000 16.000000
v 16.000000 84.000000 16.000000
v -16.000000 44.000000 16.000000
v 16.000000 44.000000 16.000000
v -16.000000 44.000000 16.000000
v 16.000000 44.000000 16.000000
v -16.000000 0.000000 16.000000
v 16.000000 0.000000 16.000000
v 65.000000 84.000000 -16.000000
v 16.000000 84.000000 -16.000000
v 65.000000 44.000000 -16.000000
v 16.000000 44.000000 -16.000000
v 65.000000 44.000000 -16.000000
v 16.000000 44.000000 -16.000000
v 65.000000 0.000000 -16.000000
v 16.000000 0.000000 -16.000000
v -65.000000 84.000000 -16.000000
v -16.000000 84.000000 -16.000000
v -65.000000 44.000000 -16.000000
v -16.000000 44.000000 -16.000000
v -65.000000 44.000000 -16.000000
v -16.000000 44.000000 -16.000000
v -65.000000 0.000000 -16.000000
v -16.000000 0.000000 -16.000000
v 16.000000 84.000000 -16.000000
v -16.000000 84.000000 -16.000000
v 16.000000 44.000000 -16.000000
v -16.000000 44.000000 -16.000000
v 16.000000 44.000000 -16.000000
v -16.000000 44.000000 -16.000000
v 16.000000 0.000000 -16.000000
v -16.000000 0.000000 -16.000000
v -65.000000 84.000000 -16.000000
v -65.000000 84.000000 16.000000
v -65.000000 44.000000 -16.000000
v -65.000000 44.000000 16.000000
v -65.000000 44.000000 -16.000000
v -65.000000 44.000000 16.000000
v -65.000000 0.000000 -16.000000
v -65.000000 0.000000 16.000000
v 65.000000 84.000000 16.000000
v 65.000000 84.000000 -16.000000
v 65.000000 44.000000 16.000000
v 65.000000 44.000000 -16.000000
v 65.000000 44.000000 16.000000
v 65.000000 44.000000 -16.000000
v 65.000000 0.000000 16.000000
v 65.000000 0.000000 -16.000000
# 68 vertices

vt 0.500000 0.125000
vt 0.500000 0.000000
vt 1.000000 0.000000
vt 1.000000 0.125000
vt 0.812500 1.000000
vt 0.812500 0.843750
vt 1.000000 0.843750
vt 1.000000 1.000000
vt 0.812500 0.968750
vt 0.812500 0.796875
vt 1.000000 0.796875
vt 1.000000 0.968750
vt 0.187500 0.390625
vt 0.187500 0.234375
vt 0.312500 0.234375
vt 0.312500 0.390625
vt 0.187500 0.359375
vt 0.187500 0.187500
vt 0.312500 0.187500
vt 0.312500 0.359375
vt 0.000000 0.390625
vt 0.000000 0.234375
vt 0.000000 0.359375
vt 0.000000 0.187500
# 24 texture coordinates

vn 0.000000 1.000000 0.000000
vn 0.000000 0.000000 1.000000
vn 0.000000 0.000000 -1.000000
vn -1.000000 0.000000 0.000000
vn 1.000000 0.000000 0.000000
# 5 normals

g rus_build_9et_03_LOD2
usemtl rus_build_LOD_02
s 1
f 1/1/1 3/2/1 4/3/1
f 1/1/1 4/3/1 2/4/1
f 5/5/2 7/6/2 8/7/2
f 5/5/2 8/7/2 6/8/2
f 9/9/2 11/10/2 12/11/2
f 9/9/2 12/11/2 10/12/2
f 16/7/2 15/6/2 13/5/2
f 14/8/2 16/7/2 13/5/2
f 20/11/2 19/10/2 17/9/2
f 18/12/2 20/11/2 17/9/2
f 21/13/2 23/14/2 24/15/2
f 21/13/2 24/15/2 22/16/2
f 25/17/2 27/18/2 28/19/2
f 25/17/2 28/19/2 26/20/2
f 29/21/3 31/22/3 32/14/3
f 29/21/3 32/14/3 30/13/3
f 33/23/3 35/24/3 36/18/3
f 33/23/3 36/18/3 34/17/3
f 40/14/3 39/22/3 37/21/3
f 38/13/3 40/14/3 37/21/3
f 44/18/3 43/24/3 41/23/3
f 42/17/3 44/18/3 41/23/3
f 45/13/3 47/14/3 48/15/3
f 45/13/3 48/15/3 46/16/3
f 49/17/3 51/18/3 52/19/3
f 49/17/3 52/19/3 50/20/3
f 53/13/4 55/14/4 56/15/4
f 53/13/4 56/15/4 54/16/4
f 57/17/4 59/18/4 60/19/4
f 57/17/4 60/19/4 58/20/4
f 61/13/5 63/14/5 64/15/5
f 61/13/5 64/15/5 62/16/5
f 65/17/5 67/18/5 68/19/5
f 65/17/5 68/19/5 66/20/5
# 34 triangles in group

# 34 triangles total

