# Wavefront OBJ exported  

mtllib rus_build_5et_03a_LOD2.mtl

v -57.000000 45.000000 16.000000
v 0.000000 45.000000 16.000000
v -57.000000 0.000000 16.000000
v 0.000000 0.000000 16.000000
v 0.000000 45.000000 16.000000
v 57.000000 45.000000 16.000000
v 0.000000 0.000000 16.000000
v 57.000000 0.000000 16.000000
v 57.000000 45.000000 -16.000000
v 0.000000 45.000000 -16.000000
v 57.000000 0.000000 -16.000000
v 0.000000 0.000000 -16.000000
v 0.000000 45.000000 -16.000000
v -57.000000 45.000000 -16.000000
v 0.000000 0.000000 -16.000000
v -57.000000 0.000000 -16.000000
v 57.000000 45.000000 16.000000
v 57.000000 45.000000 -16.000000
v 57.000000 0.000000 16.000000
v 57.000000 0.000000 -16.000000
v -57.000000 45.000000 -16.000000
v -57.000000 45.000000 16.000000
v -57.000000 0.000000 -16.000000
v -57.000000 0.000000 16.000000
v -59.000000 44.500000 0.000000
v -41.000000 49.000000 0.000000
v 41.000000 49.000000 0.000000
v -59.000000 44.500000 18.000000
v -41.000000 44.500000 18.000000
v 41.000000 44.500000 18.000000
v 41.000000 49.000000 0.000000
v 59.000000 44.500000 0.000000
v 41.000000 44.500000 18.000000
v 59.000000 44.500000 18.000000
v 59.000000 44.500000 0.000000
v 41.000000 49.000000 0.000000
v -41.000000 49.000000 0.000000
v 59.000000 44.500000 -18.000000
v 41.000000 44.500000 -18.000000
v -41.000000 44.500000 -18.000000
v -41.000000 49.000000 0.000000
v -59.000000 44.500000 0.000000
v -41.000000 44.500000 -18.000000
v -59.000000 44.500000 -18.000000
v -59.000000 44.500000 0.000000
v -41.000000 49.000000 0.000000
v 41.000000 49.000000 0.000000
v -59.000000 44.500000 18.000000
v -41.000000 44.500000 18.000000
v 41.000000 44.500000 18.000000
v 41.000000 49.000000 0.000000
v 59.000000 44.500000 0.000000
v 41.000000 44.500000 18.000000
v 59.000000 44.500000 18.000000
v 59.000000 44.500000 0.000000
v 41.000000 49.000000 0.000000
v -41.000000 49.000000 0.000000
v 59.000000 44.500000 -18.000000
v 41.000000 44.500000 -18.000000
v -41.000000 44.500000 -18.000000
v -41.000000 49.000000 0.000000
v -59.000000 44.500000 0.000000
v -41.000000 44.500000 -18.000000
v -59.000000 44.500000 -18.000000
# 64 vertices

vt 0.781250 0.687500
vt 0.781250 0.515625
vt 1.000000 0.515625
vt 1.000000 0.687500
vt 0.562500 0.687500
vt 0.562500 0.515625
vt 0.687500 0.343750
vt 0.687500 0.171875
vt 0.812500 0.171875
vt 0.812500 0.343750
vt 0.562500 0.000000
vt 0.634221 0.000000
vt 0.634221 0.062500
vt 0.562500 0.062500
vt 0.928279 0.000000
vt 0.928279 0.062500
vt 1.000000 0.000000
vt 1.000000 0.062500
# 18 texture coordinates

vn 0.000000 0.000000 1.000000
vn 0.000000 0.000000 -1.000000
vn 1.000000 0.000000 0.000000
vn -1.000000 0.000000 0.000000
vn -0.123091 0.984732 0.123091
vn 0.000000 0.970142 0.242536
vn -0.061314 0.981023 0.183942
vn -0.242536 0.970142 0.000000
vn 0.123091 0.984732 0.123091
vn 0.242536 0.970142 0.000000
vn 0.123091 0.984732 -0.123091
vn 0.000000 0.970142 -0.242536
vn 0.061314 0.981023 -0.183942
vn -0.123091 0.984732 -0.123091
vn 0.061314 -0.981023 -0.183942
vn 0.000000 -0.970142 -0.242536
vn 0.123091 -0.984732 -0.123091
vn 0.242536 -0.970142 0.000000
vn -0.123091 -0.984732 -0.123091
vn -0.242536 -0.970142 0.000000
vn -0.061314 -0.981023 0.183942
vn 0.000000 -0.970142 0.242536
vn -0.123091 -0.984732 0.123091
vn 0.123091 -0.984732 0.123091
# 24 normals

g rus_build_5et_03a_LOD2
usemtl rus_build_LOD_01
s 1
f 1/1/1 3/2/1 4/3/1
f 1/1/1 4/3/1 2/4/1
f 5/1/1 7/2/1 8/3/1
f 5/1/1 8/3/1 6/4/1
f 9/5/2 11/6/2 12/2/2
f 9/5/2 12/2/2 10/1/2
f 13/5/2 15/6/2 16/2/2
f 13/5/2 16/2/2 14/1/2
f 17/7/3 19/8/3 20/9/3
f 17/7/3 20/9/3 18/10/3
f 21/7/4 23/8/4 24/9/4
f 21/7/4 24/9/4 22/10/4
f 28/11/5 29/12/6 26/13/7
f 28/11/5 26/13/7 25/14/8
f 26/13/7 29/12/6 30/15/6
f 26/13/7 30/15/6 27/16/6
f 31/16/9 33/15/6 34/17/9
f 31/16/9 34/17/9 32/18/10
f 38/11/11 39/12/12 36/13/13
f 38/11/11 36/13/13 35/14/10
f 36/13/13 39/12/12 40/15/12
f 36/13/13 40/15/12 37/16/12
f 41/16/14 43/15/12 44/17/14
f 41/16/14 44/17/14 42/18/8
f 46/13/15 49/12/16 48/11/17
f 45/14/18 46/13/15 48/11/17
f 50/15/16 49/12/16 46/13/15
f 47/16/16 50/15/16 46/13/15
f 54/17/19 53/15/16 51/16/19
f 52/18/20 54/17/19 51/16/19
f 56/13/21 59/12/22 58/11/23
f 55/14/20 56/13/21 58/11/23
f 60/15/22 59/12/22 56/13/21
f 57/16/22 60/15/22 56/13/21
f 64/17/24 63/15/22 61/16/24
f 62/18/18 64/17/24 61/16/24
# 36 triangles in group

# 36 triangles total

